<?xml version="1.0" encoding="iso-8859-1"?>
<!-- Generator: Adobe Illustrator 19.0.0, SVG Export Plug-In . SVG Version: 6.00 Build 0)  -->
<svg version="1.1" id="Layer_1" xmlns="http://www.w3.org/2000/svg" xmlns:xlink="http://www.w3.org/1999/xlink" x="0px" y="0px"
	 viewBox="0 0 511.995 511.995" style="enable-background:new 0 0 511.995 511.995;" xml:space="preserve">
<path style="fill:#F6BB42;" d="M492.535,329.808c-6.641-16.047-2.031-39.218,10.25-51.499c12.28-12.258,12.28-32.366,0-44.631
	c-12.281-12.273-16.891-35.444-10.25-51.498c6.656-16.047-1.031-34.609-17.077-41.241c-16.031-6.633-29.156-26.281-29.156-43.64
	c0-17.367-14.203-31.569-31.577-31.569c-17.358,0-36.999-13.125-43.624-29.171c-6.656-16.055-25.218-23.742-41.264-17.102
	c-16.062,6.633-39.234,2.023-51.499-10.25c-12.273-12.265-32.382-12.265-44.679,0c-12.265,12.273-35.437,16.883-51.467,10.25
	c-16.046-6.641-34.608,1.047-41.265,17.102c-6.656,16.046-26.296,29.171-43.655,29.171S65.694,79.932,65.694,97.298
	c0,17.359-13.125,37.007-29.171,43.64c-16.031,6.632-23.718,25.194-17.062,41.241c6.656,16.054,2.031,39.225-10.25,51.498
	c-12.281,12.266-12.281,32.374,0,44.631c12.281,12.281,16.906,35.452,10.25,51.499c-6.656,16.046,1.031,34.607,17.062,41.264
	c16.046,6.656,29.171,26.297,29.171,43.656c0,17.358,14.219,31.561,31.578,31.561s36.999,13.141,43.655,29.188
	c6.656,16.046,25.218,23.733,41.265,17.077c16.031-6.655,39.202-2.031,51.467,10.234c12.281,12.265,32.39,12.265,44.664,0
	c12.28-12.266,35.452-16.89,51.515-10.234c16.03,6.656,34.592-1.031,41.232-17.077c6.656-16.047,26.297-29.188,43.655-29.188
	c17.374,0,31.577-14.202,31.577-31.561s13.125-37,29.156-43.656C491.504,364.415,499.191,345.853,492.535,329.808z"/>
<g>
	<path style="fill:#FFCE54;" d="M311.618,255.81L493.66,219.6c-2.703-6.546-4.156-13.843-4.156-20.921l-182.042,36.21
		l155.371-102.31c-5.141-4.828-9.453-10.898-12.375-17.39L295.259,217.373l105.263-154.3c-6.625-2.398-12.984-6.281-18.25-11.102
		L277.197,206.006l37.812-183.542c-7.047,0.227-14.391-1.016-21.047-3.531l-37.788,183.315L219.597,18.324
		c-6.547,2.711-13.843,4.164-20.921,4.164l36.577,183.925L130.224,51.526c-5.203,4.867-11.515,8.828-18.109,11.312L217.284,217.92
		L61.257,115.821c-3.031,6.476-7.422,12.492-12.625,17.234l156.309,102.286L22.477,200.327c-0.219,7.117-1.891,14.375-4.797,20.804
		l182.698,35.054L18.336,292.387c2.719,6.546,4.172,13.843,4.172,20.921l182.026-36.202L49.148,379.415
		c5.141,4.828,9.453,10.906,12.391,17.391l155.199-102.201L111.46,448.945c6.625,2.391,12.984,6.266,18.25,11.094L234.801,305.98
		l-37.813,183.557c7.047-0.234,14.39,1,21.046,3.516l37.78-183.308l36.585,183.917c6.547-2.703,13.844-4.156,20.922-4.156
		l-36.577-183.933l105.044,154.918c5.203-4.875,11.5-8.828,18.109-11.312L294.712,294.073L450.755,396.18
		c3.031-6.469,7.422-12.484,12.625-17.234L307.04,276.652l182.479,35.015c0.234-7.109,1.891-14.375,4.797-20.796L311.618,255.81z"/>
	<path style="fill:#FFCE54;" d="M447.989,255.997c0,106.027-85.951,191.994-192.003,191.994
		c-106.028,0-191.994-85.967-191.994-191.994c0-106.036,85.966-191.995,191.995-191.995
		C362.038,64.002,447.989,149.961,447.989,255.997z"/>
</g>
<path style="fill:#ED5564;" d="M272.197,144.563c-56.976-20.344-118.567-18.477-162.754-12.586
	c-28.342,33.46-45.451,76.74-45.451,124.02c0,36.233,10.046,70.123,27.499,99.044c36.077-6.031,89.216-8.172,146.809,12.39
	c57.694,20.594,120.145,18.422,164.442,12.359c28.232-33.437,45.248-76.623,45.248-123.793c0-36.335-10.094-70.311-27.624-99.279
	C384.272,162.929,330.509,165.382,272.197,144.563z"/>
<polygon style="fill:#FFCE54;" points="286.899,227.56 271.189,167.82 232.409,216.366 169.254,212.514 204.581,264.067 
	181.363,321.714 242.096,304.729 290.634,344.041 292.931,282.309 346.477,248.927 "/>
<g style="opacity:0.2;">
	<path style="fill:#FFFFFF;" d="M255.986,64.002c-3.578,0-7.125,0.109-10.671,0.297c101.083,5.539,181.347,89.248,181.347,191.698
		s-80.264,186.15-181.347,191.697c3.546,0.188,7.093,0.297,10.671,0.297c106.052,0,192.003-85.967,192.003-191.994
		C447.989,149.961,362.038,64.002,255.986,64.002z"/>
</g>
<g>
</g>
<g>
</g>
<g>
</g>
<g>
</g>
<g>
</g>
<g>
</g>
<g>
</g>
<g>
</g>
<g>
</g>
<g>
</g>
<g>
</g>
<g>
</g>
<g>
</g>
<g>
</g>
<g>
</g>
</svg>
